<?xml version="1.0" standalone="yes"?>
<svg xmlns="http://www.w3.org/2000/svg" width="117" height="100">
<path style="fill:#c1cd6e; stroke:none;" d="M0 0C2.23265 12.9775 15.9546 -2.8002 21.2485 3.64198C22.8577 5.60036 20.7136 7.90872 18.9367 8.69059C12.9324 11.3327 4.56948 10.2625 0 16C5.82104 14.0307 10.8544 10.9325 17 13L17 14L0 26L0 27L11 22L0 42L1 42C4.6584 36.4187 12.5025 20.4422 19 21L0 56L1 56C4.52615 48.5791 13.0289 32.8592 21 34C21.6951 41.3909 39.1914 48.3541 46 50L46 49C40.5628 46.5477 26.6315 40.4225 25 35C28.9446 35 37.2543 33.8773 38 39C42.4446 39.8251 47.6931 39.0453 51.9105 40.3981C56.4284 41.8474 59.6822 46.1112 64 48.0015C71.6124 51.3342 82.0464 52.0437 90 50C91.463 44.9001 94.743 42.7267 100 43C93.1982 31.0419 87.2101 43.2455 78 43C78.7657 38.2949 81.4122 37.9425 84.6821 35.0347C87.3556 32.6573 86.0115 27.7941 89.2338 26.1358C92.0648 24.6789 94.6631 27.4288 97.1698 28.2986C100.454 29.4383 103.878 28.429 106.501 31.2377C111.092 36.1547 109.465 41.9843 117 44L111 24L115 24L113 27L113 28L117 30C116.869 18.9418 107.78 23.7004 101.257 17.6713C95.3129 12.1774 107.087 12.2505 109.998 13.0147C112.343 13.6301 114.668 14.3382 117 15C111.274 7.81886 100.421 12.2611 93 13L108 23L100 25L99 28L84 24C84.7731 36.8735 77.2748 36.9056 66 39C67.9744 45.0118 79.2358 46.6171 85 47L85 48C78.3643 49.5059 66.4429 46.4846 61.0579 42.2361C57.8672 39.7189 56.6199 35.8888 53 34L53 33L63 33L65 27C60.6881 27.1281 57.4661 27.6063 56 32L44 34.9977L18 31L34 0L28 5L27 5L26 0L0 0z"/>
<path style="fill:#eaeea6; stroke:none;" d="M26 0L27 5L28 5L30 0L26 0z"/>
<path style="fill:#97a64c; stroke:none;" d="M34 0C27.8248 10.4223 20.0896 18.6666 18 31L45 35.3966L56 32C58.0917 28.227 60.7896 27.2828 65 27L63 33L53 33L53 34C62.2164 41.1736 71.0958 52.0623 85 48L85 47C78.9138 46.2251 69.0959 44.6738 66 39C77.7731 37.5121 85.5806 37.0522 84 24L99 28L100 25L108 23L93 13L117 13C115.034 6.77662 106.647 7.24244 101 7L101 8L103 10L95 10L95 9L99 9L99 8C93.0878 7.11447 83.3797 0.807228 79 7L56 2L57 4L43 4L42 0C38.3076 0.710739 37.0774 3.07735 34 0z"/>
<path style="fill:#67822e; stroke:none;" d="M35 3L39 0L35 3z"/>
<path style="fill:#c1cd6e; stroke:none;" d="M42 0L43 4L57 4L56 2L79 7C83.6184 2.72676 88.6233 5.56265 94 7C89.2847 1.6567 83.4118 3.5721 77.0039 2.89198C65.3359 1.65358 54.2062 0 42 0z"/>
<path style="fill:#eaeea6; stroke:none;" d="M56 0L56 1L63 1L56 0M71 0C74.3007 4.67168 80.9567 2.55556 86 3.1088C89.9927 3.54678 93.043 6.42936 97 6.81636C104.754 7.57467 109.643 4.78892 117 9L117 0L71 0z"/>
<path style="fill:#97a64c; stroke:none;" d="M5 6L5 7L21 5L14 8C16.9062 9.69244 25.2976 8.6256 21.9136 3.60648C19.0858 -0.587578 8.32392 4.64585 5 6M0 4L4 6L4 5L0 4z"/>
<path style="fill:#67822e; stroke:none;" d="M0 8L16 6L15 8L21 5C15.7411 5.00058 3.5266 4.00597 0 8z"/>
<path style="fill:#c1cd6e; stroke:none;" d="M61 5L61 6L66 7L61 5M101 6L101 7L116 9C111.876 4.37484 106.69 5.98429 101 6z"/>
<path style="fill:#3b5213; stroke:none;" d="M0 8L2 12L16 7L0 8z"/>
<path style="fill:#67822e; stroke:none;" d="M21 27L30 19L33 21L25 30L34 31L34 30L29 30L29 29L40 19C40.5973 22.5629 46.5718 20.0187 49 18.8056C56.4256 15.0956 64.5358 11.7869 69 22L41 32L41 33L68 25L59 36L60 41L84 33C82.1442 26.5292 73.8004 21.0052 68 18C67.6585 10.2435 59.3251 12.877 54 10.4059C38.3229 3.13081 22.8927 8.00952 21 27M83 6C85.8286 9.96729 90.5343 10.2278 95 9L95 8L83 6z"/>
<path style="fill:#c1cd6e; stroke:none;" d="M58 7L64 10L64 9L58 7M95 7L95 8L101 8L95 7z"/>
<path style="fill:#67822e; stroke:none;" d="M0 9C2.2296 15.6949 9.29855 10.3539 14 9L0 9z"/>
<path style="fill:#c1cd6e; stroke:none;" d="M75.3333 8.66666L75.6667 9.33334L75.3333 8.66666z"/>
<path style="fill:#67822e; stroke:none;" d="M95 9L95 10L103 10L103 8L95 9z"/>
<path style="fill:#97a64c; stroke:none;" d="M11.6667 9.33334L12.3333 9.66666L11.6667 9.33334z"/>
<path style="fill:#3b5213; stroke:none;" d="M25 21L40 10C32.6196 9.55441 26.4214 13.6747 25 21z"/>
<path style="fill:#67822e; stroke:none;" d="M108 9L108 10L116 11L116 10L108 9z"/>
<path style="fill:#c1cd6e; stroke:none;" d="M116 9L117 10L116 9z"/>
<path style="fill:#97a64c; stroke:none;" d="M9.66667 10.3333L10.3333 10.6667L9.66667 10.3333M7 11L8 12L7 11z"/>
<path style="fill:#eaeea6; stroke:none;" d="M0 26L17 14C8.24106 5.32065 0.000889957 17.937 0 26z"/>
<path style="fill:#97a64c; stroke:none;" d="M0 12L4 14L4 13L0 12M5 12L6 13L5 12z"/>
<path style="fill:#eaeea6; stroke:none;" d="M117 23C116.976 16.3298 106.027 5.40745 99.8904 13.5995C96.5755 18.0249 106.356 20.8876 109 21.4861C111.654 22.0867 114.349 22.3616 117 23z"/>
<path style="fill:#3b5213; stroke:none;" d="M40 19L29 29L29 30L44 31.4005L69 22C69 16.6838 60.2861 12.238 55 14C52.5201 14.8266 51.3067 17.6544 49 19C45.9508 20.7787 39.1632 22.3474 40 19z"/>
<path style="fill:#c1cd6e; stroke:none;" d="M94 18L95 19L94 18z"/>
<path style="fill:#eaeea6; stroke:none;" d="M0 53L1 53L19 21C12.4524 19.5225 12.2268 25.2857 9.49691 29.9105C4.21026 38.8667 0 41.94 0 53z"/>
<path style="fill:#97a64c; stroke:none;" d="M0 27L0 28L9 24L0 37C5.70699 33.5147 9.36072 28.4884 11 22L0 27z"/>
<path style="fill:#67822e; stroke:none;" d="M87 22L88 23L87 22M0 28L0 29L9 24L0 28z"/>
<path style="fill:#97a64c; stroke:none;" d="M111 24C110.609 29.2643 112.832 31.9891 117 35L113 28L113 27L115 24L111 24z"/>
<path style="fill:#eaeea6; stroke:none;" d="M78 43C87.9877 43.8246 91.5803 32.93 100 43C94.4678 42.054 90.8845 44.3905 90 50C81.7846 51.2223 72.8469 51.0158 65 47.9267C60.5422 46.1718 57.2969 41.7969 52.8302 40.1435C48.7647 38.6386 42.4537 39.5629 38 39C37.3569 33.6737 29.2268 35 25 35C25.9341 40.6472 29.4685 39.817 33.9606 41.7276C37.4261 43.2015 39.4426 46.6222 43.0147 47.9676C46.8135 49.3984 51.2674 48.4962 54.902 50.4336C58.4266 52.3124 57.2867 57.4804 61.1489 58.527C67.9637 60.3738 71.0887 54.8224 78 59L78 60L74 65L74 66L85 74L96 73L96 72L91 71L107 63L95 51C99.3949 50.3194 101.82 48.3169 103 44L117 54C116.999 42.0383 108.591 31.4484 98.0895 28.2631C95.0227 27.3329 91.7314 23.7911 88.3565 26.0432C85.8455 27.7188 87.0576 31.3607 85.358 33.6096C82.301 37.6546 78.4593 37.2237 78 43z"/>
<path style="fill:#3b5213; stroke:none;" d="M6 26L0 32C3.55497 31.4251 6.32704 29.9164 6 26z"/>
<path style="fill:#97a64c; stroke:none;" d="M106 26L106 27L109 27L106 26z"/>
<path style="fill:#67822e; stroke:none;" d="M6 28L7 29L6 28z"/>
<path style="fill:#3b5213; stroke:none;" d="M63 35L63 36L82 33C78.6133 22.5469 67.9273 31.1239 63 35z"/>
<path style="fill:#67822e; stroke:none;" d="M5.33333 29.6667L5.66667 30.3333L5.33333 29.6667M4 31L5 32L4 31M35 31L35 32L40 32L35 31M0 34L4 33L0 34z"/>
<path style="fill:#97a64c; stroke:none;" d="M0 58L1 58L17 37L29 46C23.5491 48.6795 20.4055 54.0056 22 60C19.021 61.5454 0.559413 75.0173 11.0231 75.7577C16.2414 76.1269 19.4046 71.3833 24 70C18.3562 80.5297 12.6901 87.0213 0 84C5.11107 90.9898 16.1695 83.4308 23 84C23.2566 89.5848 26.9349 87.64 29 84L45 78.3218L62 82L62 86L66 85L65 82L79 81L79 83C68.4718 85.8065 68.5501 95.5028 56 95L56 91L42 92C47.967 100.112 66.0513 101.521 75 99L75 98L68 98L75 91L74 87L86 81L84 78C90.1876 78 95.7843 77.2483 101 81L95 81L95 82L98 83L97 86L110 93L110 92L105 85L117 86C115.897 80.8538 109.035 83.9322 105 84L117 81L116 78C110.484 79.1336 107.567 79.7678 103 76C109.529 73.7476 109.533 69.7678 107 64L98 70L102 71C92.8748 85.6517 78.9369 66.6574 67 71L67 72L74 70C69.0371 78.1996 65.5446 81.5178 56 79L56 77L66 73L66 72C58.2872 72.6138 48.6785 76.8392 47 66L42 63C46.0617 62.276 61.2758 56.0745 54 51C52.5446 57.2402 28.4603 67.5745 46 68C46.2059 76.1521 38.6492 79.6108 32 83C30.9393 76.7505 35.6498 73.3285 29 69L29 68C36.6452 63.6441 42.6553 58.6672 45 50C38.4547 46.7314 22.496 41.5429 21 34C12.8612 32.1041 2.36671 49.9571 0 58z"/>
<path style="fill:#67822e; stroke:none;" d="M17 37L0 60L1 60C5.31714 52.5349 15.9657 38.1539 25 45C19.2758 49.6396 20.4348 55.9749 16.686 61.4707C10.9111 69.9365 -2.20847 67.0694 0.148148 80.9414C0.94723 85.6451 6.18412 85.316 10 84.8912C17.9118 84.0105 21.4395 76.5885 24 70C19.4534 70.7579 16.6238 75.2184 12.0085 75.5116C0.750258 76.2267 19.6074 61.8227 22 60C20.9571 53.9235 24.2539 49.5241 29 46L17 37z"/>
<path style="fill:#97a64c; stroke:none;" d="M85 46L95 41C90.5802 39.3448 87.0738 42.1675 85 46z"/>
<path style="fill:#3b5213; stroke:none;" d="M0 72L16.686 62.2114L25 45C19.9645 39.5337 15.6914 42.9598 11.1304 47.2608C2.66082 55.2476 0 60.4878 0 72z"/>
<path style="fill:#c1cd6e; stroke:none;" d="M103 44L95 51L107 63L103 64L103 65L107 64C108.962 70.0825 109.126 72.8856 103 76C107.107 80.9152 111.297 78.8187 117 79C113.029 72.6143 108.249 68.3089 109 60L117 63C115.793 60.0454 107.463 49.2069 106 56L101 51C108.07 48.1282 111.163 52.1427 117 56C114.235 50.4563 108.77 46.1302 103 44z"/>
<path style="fill:#67822e; stroke:none;" d="M33.6667 48.3333L34.3333 48.6667L33.6667 48.3333z"/>
<path style="fill:#97a64c; stroke:none;" d="M101 51L106 56C108.927 52.3896 113.751 59.2795 117 61C116.38 52.7839 108.526 46.4385 101 51M46 49L46 50L49 50L46 49z"/>
<path style="fill:#c1cd6e; stroke:none;" d="M49 49L49 50L57 52C53.8437 58.046 48.4312 61.1473 42 63L47 66C48.1454 81.1405 69.8722 68.928 79 70L79 69L74 66L74 65L78 60C71.835 51.906 68.4744 60.9089 61.1628 58.1674C58.0791 57.0112 59.1355 53.6655 57.3117 51.5633C55.3592 49.3125 51.7264 49.2248 49 49M12 73C17.8569 72.563 27.4362 69.636 31 65L22 67C24.7538 58.3759 31.4153 53.8003 40 52L32 65C38.009 61.0252 42.7187 57.6512 42 50C30.8162 51.4443 14.401 61.1012 12 73z"/>
<path style="fill:#67822e; stroke:none;" d="M29 68L29 69C34.4874 74.0916 30.3441 76.8575 32 83C39.2449 80.5578 46.5886 76.2108 46 68C29.854 67.1128 52.3923 57.3357 55 52C43.7667 47.7943 37.5326 61.2276 29 68z"/>
<path style="fill:#97a64c; stroke:none;" d="M50 50L50 51L53 51L50 50z"/>
<path style="fill:#3b5213; stroke:none;" d="M45 51L41 61L53 52L45 51z"/>
<path style="fill:#eaeea6; stroke:none;" d="M22 67C29.9282 68.22 40.4403 60.3985 40 52C31.2214 53.1889 23.7741 57.8308 22 67z"/>
<path style="fill:#c1cd6e; stroke:none;" d="M85 58L85 59L89 57L85 58z"/>
<path style="fill:#97a64c; stroke:none;" d="M69 62C72.7896 62.8638 74.6224 62.0644 74 58L69 62z"/>
<path style="fill:#eaeea6; stroke:none;" d="M109 60C107.674 66.3659 110.628 74.7099 117 77C117 68.4982 118.286 62.7288 109 60M49 72L72 68C68.8063 57.8576 49.3353 61.783 49 72z"/>
<path style="fill:#c1cd6e; stroke:none;" d="M91 71L96 72L96 73L85 74L79 70L79 71C84.9285 76.4836 97.6283 81.309 102 71L98 70L103 66L91 71z"/>
<path style="fill:#67822e; stroke:none;" d="M101 68L101 69C104.333 69.3562 106.033 69.4038 107 66L101 68z"/>
<path style="fill:#3b5213; stroke:none;" d="M31 67L31 68C36.0741 70.8232 40.6683 76.0606 45 69L31 67z"/>
<path style="fill:#67822e; stroke:none;" d="M56 77L56 79C65.1145 82.3208 70.3511 78.7841 74 70L56 77z"/>
<path style="fill:#c1cd6e; stroke:none;" d="M25 77L31 72C27.1356 72.3002 25.6517 73.0892 25 77z"/>
<path style="fill:#67822e; stroke:none;" d="M76 72L74 77L80 78L78 72L76 72z"/>
<path style="fill:#3b5213; stroke:none;" d="M17 76L20 74L17 76M1 84C7.20395 83.9952 10.2124 82.9505 15 79C9.93426 77.4419 2.66276 78.5226 1 84z"/>
<path style="fill:#c1cd6e; stroke:none;" d="M29 84C26.7098 86.5823 23.6044 88.7998 23 84L0 86C1.4498 92.7657 14.5905 88.6675 19 87L18 90L34 88L37 91L36 94L56 100L56 99L42 92L56 91L56 95C69.0639 96.0223 68.4155 87.2412 79 83L79 81C74.0215 78.8185 69.93 80.1896 65 82L66 85L62 86L62 82L45 78.1489L29 84z"/>
<path style="fill:#67822e; stroke:none;" d="M84 78L86 81L74 87L75 91C71.0958 92.3422 69.1493 94.0014 68 98L75 98L74 100L75 100L95 100L95 99L75 95C81.1291 79.6107 94.675 85.7671 105.424 92.1705C109.247 94.4479 113.572 95.379 115 100C119.329 95.7965 100.97 86.7699 97 86L98 83L95 82L95 81L101 81C96.7003 76.6094 89.7683 78 84 78z"/>
<path style="fill:#3b5213; stroke:none;" d="M33 81L36 79L33 81z"/>
<path style="fill:#eaeea6; stroke:none;" d="M36 88C44.8566 89.7557 54.6478 92.6318 60 83C49.0882 82.9916 42.6292 75.29 36 88z"/>
<path style="fill:#67822e; stroke:none;" d="M105 84L117 83C114.035 78.4786 108.213 80.6817 105 84z"/>
<path style="fill:#eaeea6; stroke:none;" d="M68 82L68 87L72 82L68 82z"/>
<path style="fill:#67822e; stroke:none;" d="M23 87L27 84L23 87z"/>
<path style="fill:#3b5213; stroke:none;" d="M75 95L98 100C99.3071 94.1389 110.531 100.781 116 99C107.687 88.4151 80.3412 75.7404 75 95z"/>
<path style="fill:#c1cd6e; stroke:none;" d="M105 85L108 91C108.109 85.3131 112.597 86.4583 117 87L105 85z"/>
<path style="fill:#eaeea6; stroke:none;" d="M117 95L117 87C105.34 84.843 107.776 92.284 117 95M0 89L0 97C15.6276 101.887 32.7753 100 49 100L49 99C44.3315 97.4438 38.3253 96.1756 37 91L34 88L32 90L18 90L19 87L0 89M59 94C63.474 93.8544 65.7682 92.9778 68 89C63.3446 89.0165 59.872 88.7747 59 94z"/>
<path style="fill:#c1cd6e; stroke:none;" d="M109 91L110 92L109 91M110 92L111 93L110 92z"/>
<path style="fill:#97a64c; stroke:none;" d="M111 93L112 94L111 93z"/>
<path style="fill:#c1cd6e; stroke:none;" d="M112 93L113 94L112 93z"/>
<path style="fill:#97a64c; stroke:none;" d="M113 94L115 96L113 94z"/>
<path style="fill:#c1cd6e; stroke:none;" d="M114 94L115 95L114 94M115.667 95.3333L116.333 95.6667L115.667 95.3333z"/>
<path style="fill:#67822e; stroke:none;" d="M55 96L56 97L55 96M97 99L106 100C103.605 95.9044 100.276 95.6963 97 99z"/>
<path style="fill:#97a64c; stroke:none;" d="M116 96L117 97L116 96z"/>
<path style="fill:#c1cd6e; stroke:none;" d="M0 97C0.945601 101.413 6.23253 100 10 100L0 97z"/>
<path style="fill:#67822e; stroke:none;" d="M57 97L57 98L60 98L57 97M61 98L61 100L66 100L66 98L61 98M70 99L71 100L70 99z"/>
<path style="fill:#97a64c; stroke:none;" d="M76 99L76 100L79 100L76 99z"/>
</svg>
